[Header]                  # Header keywords are followed by a single value
FileType htr              # single word string
DataType HTRS             # Hierarchical translations followed by rotations and Scale
FileVersion 1             # integer
NumSegments   22        # integer
NumFrames   5          # integer
DataFrameRate    60      # integer
EulerRotationOrder ZYX    # one word string
CalibrationUnits mm   # one word string
RotationUnits Degrees     # one word string
GlobalAxisofGravity Y        # character, X or Y or Z
BoneLengthAxis Y
ScaleFactor 1.0000
[SegmentNames&Hierarchy]
#CHILD         PARENT
LowerTorso	GLOBAL
MidTorso1	LowerTorso
MidTorso2	MidTorso1
UpperTorso	MidTorso2
Neck	UpperTorso
Head	Neck
LCollar	UpperTorso
LUpArm	LCollar
LLowArm	LUpArm
LHand	LLowArm
RCollar	UpperTorso
RUpArm	RCollar
RLowArm	RUpArm
RHand	RLowArm
RThigh	LowerTorso
RLowLeg	RThigh
RFoot	RLowLeg
RToe	RFoot
LThigh	LowerTorso
LLowLeg	LThigh
LFoot	LLowLeg
LToe	LFoot
[BasePosition]
#SegmentName Tx, Ty, Tz, Rx, Ry, Rz, BoneLength
LowerTorso	245.858011	950.547112	300.901792	3.160114	-0.119681	0.216534	50.177140	
MidTorso1	0.000000	50.177140	0.000000	12.744977	0.544086	-1.233692	50.243103	
MidTorso2	0.000000	50.243103	0.000000	-8.561622	-5.666755	-0.324056	70.108070	
UpperTorso	0.000000	70.108070	0.000000	-7.840640	5.423498	1.565454	211.798493	
Neck	0.000000	211.798493	0.000000	3.763396	2.354772	0.143986	247.477358	
Head	0.000000	247.477358	0.000000	87.188098	-1.617490	-0.909978	97.755902	
LCollar	5.963899	207.774288	0.020038	-0.085181	3.120430	-88.053499	154.341182	
LUpArm	0.000000	154.341182	0.000000	17.609330	2.601210	1.098979	257.694232	
LLowArm	0.000000	257.694232	0.000000	-4.295116	-4.411555	-0.381267	245.288314	
LHand	0.000000	245.288314	0.000000	-1.254656	0.451892	-3.187610	143.943585	
RCollar	-6.407295	207.548200	-0.033576	-3.957489	-2.573361	89.782717	159.716168	
RUpArm	0.000000	159.716168	0.000000	10.569861	0.025507	1.593474	259.181013	
RLowArm	0.000000	259.181013	0.000000	2.433186	-0.094719	0.439860	254.783021	
RHand	0.000000	254.783021	0.000000	-2.521327	-1.940663	10.821380	138.724995	
RThigh	-104.582724	-43.868855	71.110148	1.186921	1.056410	177.271085	484.665755	
RLowLeg	0.000000	484.665755	0.000000	-9.413113	-2.560999	2.584420	338.943480	
RFoot	0.000000	338.943480	0.000000	38.119802	-1.210697	-2.462270	108.422675	
RToe	0.000000	108.422675	0.000000	62.205972	5.729825	0.107186	135.948299	
LThigh	104.514322	-44.027056	71.110540	1.887019	-3.794944	-176.973714	484.665500	
LLowLeg	0.000000	484.665500	0.000000	-9.413064	2.561022	-2.584327	338.944952	
LFoot	0.000000	338.944952	0.000000	38.119895	1.210631	2.462181	108.422417	
LToe	0.000000	108.422417	0.000000	62.206117	-5.729564	-0.107296	135.948400	
#Beginning of Data. Separated by tabs
[LowerTorso]
#Fr     Tx      Ty      Tz      Rx      Ry      Rz      SF
482	116.472816	-19.043312	217.028595	23.605423	19.710878	-49.852245	1.000000	
483	117.359779	-34.698990	213.151001	24.512512	20.554888	-48.859222	1.000000	
484	118.355125	-48.098335	211.055389	25.068554	21.762499	-47.734020	1.000000	
485	119.885139	-59.417999	210.120728	25.419767	23.004139	-46.676956	1.000000	
486	122.439308	-68.635986	209.570526	25.765667	24.007925	-45.783710	1.000000	
[MidTorso1]
#Fr     Tx      Ty      Tz      Rx      Ry      Rz      SF
482	0.000000	0.000000	0.000000	0.012183	-7.860242	-3.591957	1.000000	
483	0.000000	0.000000	0.000000	0.356270	-7.996302	-4.073926	1.000000	
484	0.000000	0.000000	0.000000	0.792572	-8.122609	-4.539790	1.000000	
485	0.000000	0.000000	0.000000	1.217805	-8.131578	-4.913062	1.000000	
486	0.000000	0.000000	0.000000	1.547115	-8.009851	-5.176551	1.000000	
[MidTorso2]
#Fr     Tx      Ty      Tz      Rx      Ry      Rz      SF
482	0.000000	0.000000	0.000000	-0.247577	-7.257376	-4.670277	1.000000	
483	0.000000	0.000000	0.000000	0.048421	-7.318034	-5.191115	1.000000	
484	0.000000	0.000000	0.000000	0.438421	-7.369656	-5.703641	1.000000	
485	0.000000	0.000000	0.000000	0.824390	-7.318238	-6.108189	1.000000	
486	0.000000	0.000000	0.000000	1.122591	-7.154560	-6.378177	1.000000	
[UpperTorso]
#Fr     Tx      Ty      Tz      Rx      Ry      Rz      SF
482	0.000000	0.000000	0.000000	0.028031	-6.517058	-5.677984	1.000000	
483	0.000000	0.000000	0.000000	0.360847	-6.513538	-6.178458	1.000000	
484	0.000000	0.000000	0.000000	0.785020	-6.505944	-6.660921	1.000000	
485	0.000000	0.000000	0.000000	1.197449	-6.412006	-7.021302	1.000000	
486	0.000000	0.000000	0.000000	1.514241	-6.223135	-7.239220	1.000000	
[Neck]
#Fr     Tx      Ty      Tz      Rx      Ry      Rz      SF
482	0.000000	0.000000	0.000000	-4.427863	-1.645549	31.323460	1.000000	
483	0.000000	0.000000	0.000000	-7.508181	-1.986479	32.224747	1.000000	
484	0.000000	0.000000	0.000000	-10.004859	-3.199189	32.734589	1.000000	
485	0.000000	0.000000	0.000000	-11.907173	-5.162092	32.676121	1.000000	
486	0.000000	0.000000	0.000000	-13.299355	-7.478183	32.177357	1.000000	
[Head]
#Fr     Tx      Ty      Tz      Rx      Ry      Rz      SF
482	0.000000	0.000000	0.000000	4.354883	11.179261	-0.683223	1.000000	
483	0.000000	0.000000	0.000000	5.476738	12.053247	-0.502415	1.000000	
484	0.000000	0.000000	0.000000	6.609135	12.737859	-0.365824	1.000000	
485	0.000000	0.000000	0.000000	7.394276	13.195428	-0.290028	1.000000	
486	0.000000	0.000000	0.000000	7.785295	13.492141	-0.281528	1.000000	
[LCollar]
#Fr     Tx      Ty      Tz      Rx      Ry      Rz      SF
482	0.000000	0.000000	0.000000	6.912082	-1.275335	10.403711	1.000000	
483	0.000000	0.000000	0.000000	6.769618	-1.197859	9.988153	1.000000	
484	0.000000	0.000000	0.000000	6.679197	-1.082339	9.163241	1.000000	
485	0.000000	0.000000	0.000000	6.539382	-0.927158	8.034936	1.000000	
486	0.000000	0.000000	0.000000	6.301106	-0.753110	6.788489	1.000000	
[LUpArm]
#Fr     Tx      Ty      Tz      Rx      Ry      Rz      SF
482	0.000000	0.000000	0.000000	50.829395	-26.842846	-19.346100	1.000000	
483	0.000000	0.000000	0.000000	51.126549	-26.801632	-21.564569	1.000000	
484	0.000000	0.000000	0.000000	50.831127	-26.026991	-23.400042	1.000000	
485	0.000000	0.000000	0.000000	49.791916	-24.559978	-25.016502	1.000000	
486	0.000000	0.000000	0.000000	47.989937	-22.543560	-26.592100	1.000000	
[LLowArm]
#Fr     Tx      Ty      Tz      Rx      Ry      Rz      SF
482	0.000000	0.000000	0.000000	93.038322	-0.012506	-0.013184	1.000000	
483	0.000000	0.000000	0.000000	94.776962	-0.012480	-0.013563	1.000000	
484	0.000000	0.000000	0.000000	96.597435	-0.012440	-0.013959	1.000000	
485	0.000000	0.000000	0.000000	98.321495	-0.012391	-0.014333	1.000000	
486	0.000000	0.000000	0.000000	99.743256	-0.012343	-0.014640	1.000000	
[LHand]
#Fr     Tx      Ty      Tz      Rx      Ry      Rz      SF
482	0.000000	0.000000	0.000000	178.351303	-16.640312	173.233353	1.000000	
483	0.000000	0.000000	0.000000	178.681244	-17.065008	172.736328	1.000000	
484	0.000000	0.000000	0.000000	178.597168	-17.285582	172.716324	1.000000	
485	0.000000	0.000000	0.000000	177.953476	-17.163998	173.335938	1.000000	
486	0.000000	0.000000	0.000000	176.826874	-16.598711	174.411057	1.000000	
[RCollar]
#Fr     Tx      Ty      Tz      Rx      Ry      Rz      SF
482	0.000000	0.000000	0.000000	10.507877	-4.063278	20.907846	1.000000	
483	0.000000	0.000000	0.000000	10.482234	-4.111098	21.180109	1.000000	
484	0.000000	0.000000	0.000000	10.410055	-4.146643	21.484121	1.000000	
485	0.000000	0.000000	0.000000	10.377093	-4.155281	21.588188	1.000000	
486	0.000000	0.000000	0.000000	10.379356	-4.150353	21.560616	1.000000	
[RUpArm]
#Fr     Tx      Ty      Tz      Rx      Ry      Rz      SF
482	0.000000	0.000000	0.000000	-43.697914	-2.548893	28.572418	1.000000	
483	0.000000	0.000000	0.000000	-42.231831	-3.812624	30.320333	1.000000	
484	0.000000	0.000000	0.000000	-40.854237	-5.637470	33.261890	1.000000	
485	0.000000	0.000000	0.000000	-39.692612	-7.634423	37.152824	1.000000	
486	0.000000	0.000000	0.000000	-38.608608	-9.701291	41.493561	1.000000	
[RLowArm]
#Fr     Tx      Ty      Tz      Rx      Ry      Rz      SF
482	0.000000	0.000000	0.000000	32.058441	0.000010	0.000014	1.000000	
483	0.000000	0.000000	0.000000	27.012344	0.000009	0.000011	1.000000	
484	0.000000	0.000000	0.000000	22.369154	0.000008	0.000009	1.000000	
485	0.000000	0.000000	0.000000	18.617537	0.000007	0.000007	1.000000	
486	0.000000	0.000000	0.000000	16.042200	0.000006	0.000006	1.000000	
[RHand]
#Fr     Tx      Ty      Tz      Rx      Ry      Rz      SF
482	0.000000	0.000000	0.000000	164.741150	-20.175537	-172.395782	1.000000	
483	0.000000	0.000000	0.000000	162.588486	-23.015648	-170.403763	1.000000	
484	0.000000	0.000000	0.000000	160.661591	-25.606218	-168.289429	1.000000	
485	0.000000	0.000000	0.000000	159.554688	-27.562719	-166.336700	1.000000	
486	0.000000	0.000000	0.000000	159.495605	-28.605547	-164.718109	1.000000	
[RThigh]
#Fr     Tx      Ty      Tz      Rx      Ry      Rz      SF
482	0.000000	0.000000	0.000000	25.106039	8.992016	-9.004696	1.000000	
483	0.000000	0.000000	0.000000	25.599525	8.210898	-10.470750	1.000000	
484	0.000000	0.000000	0.000000	25.391333	7.298089	-11.729969	1.000000	
485	0.000000	0.000000	0.000000	25.034872	5.508994	-12.692512	1.000000	
486	0.000000	0.000000	0.000000	25.072102	2.617750	-13.353654	1.000000	
[RLowLeg]
#Fr     Tx      Ty      Tz      Rx      Ry      Rz      SF
482	0.000000	0.000000	0.000000	-10.937560	0.000000	-0.000004	1.000000	
483	0.000000	0.000000	0.000000	-12.984057	0.000001	-0.000005	1.000000	
484	0.000000	0.000000	0.000000	-13.920011	0.000001	-0.000005	1.000000	
485	0.000000	0.000000	0.000000	-14.246524	0.000000	-0.000005	1.000000	
486	0.000000	0.000000	0.000000	-14.357637	0.000000	-0.000005	1.000000	
[RFoot]
#Fr     Tx      Ty      Tz      Rx      Ry      Rz      SF
482	0.000000	0.000000	0.000000	-7.628785	1.832947	13.431010	1.000000	
483	0.000000	0.000000	0.000000	-6.712703	1.791991	14.879163	1.000000	
484	0.000000	0.000000	0.000000	-6.119386	1.758315	15.970997	1.000000	
485	0.000000	0.000000	0.000000	-5.663795	1.626052	15.967019	1.000000	
486	0.000000	0.000000	0.000000	-5.220229	1.387717	14.846161	1.000000	
[RToe]
#Fr     Tx      Ty      Tz      Rx      Ry      Rz      SF
482	0.000000	0.000000	0.000000	-27.273838	-0.000053	0.000001	1.000000	
483	0.000000	0.000000	0.000000	-27.855801	-0.000054	0.000002	1.000000	
484	0.000000	0.000000	0.000000	-27.700754	-0.000054	0.000002	1.000000	
485	0.000000	0.000000	0.000000	-26.832472	-0.000052	0.000001	1.000000	
486	0.000000	0.000000	0.000000	-25.781136	-0.000050	0.000001	1.000000	
[LThigh]
#Fr     Tx      Ty      Tz      Rx      Ry      Rz      SF
482	0.000000	0.000000	0.000000	71.007133	-31.424620	12.162159	1.000000	
483	0.000000	0.000000	0.000000	74.368408	-30.428581	9.919576	1.000000	
484	0.000000	0.000000	0.000000	76.718124	-28.903486	8.159895	1.000000	
485	0.000000	0.000000	0.000000	78.146111	-27.207060	6.962940	1.000000	
486	0.000000	0.000000	0.000000	79.050644	-25.628769	6.133525	1.000000	
[LLowLeg]
#Fr     Tx      Ty      Tz      Rx      Ry      Rz      SF
482	0.000000	0.000000	0.000000	-47.989777	0.000072	-0.000055	1.000000	
483	0.000000	0.000000	0.000000	-52.003479	0.000076	-0.000062	1.000000	
484	0.000000	0.000000	0.000000	-55.278927	0.000078	-0.000068	1.000000	
485	0.000000	0.000000	0.000000	-57.819458	0.000080	-0.000072	1.000000	
486	0.000000	0.000000	0.000000	-59.755478	0.000081	-0.000076	1.000000	
[LFoot]
#Fr     Tx      Ty      Tz      Rx      Ry      Rz      SF
482	0.000000	0.000000	0.000000	18.381786	-4.766559	14.039620	1.000000	
483	0.000000	0.000000	0.000000	20.708750	-5.174726	13.418778	1.000000	
484	0.000000	0.000000	0.000000	22.925636	-5.403346	12.551922	1.000000	
485	0.000000	0.000000	0.000000	25.166000	-5.591527	11.715982	1.000000	
486	0.000000	0.000000	0.000000	27.090801	-5.799941	11.175314	1.000000	
[LToe]
#Fr     Tx      Ty      Tz      Rx      Ry      Rz      SF
482	0.000000	0.000000	0.000000	6.692605	0.000019	0.000003	1.000000	
483	0.000000	0.000000	0.000000	8.382501	0.000023	0.000004	1.000000	
484	0.000000	0.000000	0.000000	9.504673	0.000027	0.000005	1.000000	
485	0.000000	0.000000	0.000000	10.109097	0.000028	0.000006	1.000000	
486	0.000000	0.000000	0.000000	10.379148	0.000029	0.000006	1.000000	
[EndOfFile]
